<svg xmlns="http://www.w3.org/2000/svg" viewBox="0 0 64 24" role="img" aria-labelledby="tab-lockup-title tab-lockup-description">
  <title id="tab-lockup-title">Tab</title>
  <desc id="tab-lockup-description">The Tab continuation mark and wordmark.</desc>
  <g fill="currentColor">
    <path d="M1 8h10.8l-2.2 8H1Z" />
    <path d="M14.4 8H23v8H12.2Z" />
    <g transform="translate(30 18.8) scale(.3125)">
      <path d="M14.59375 0v-37.121094H1.535156v-7.679687h34.5625v7.679687H23.039062V0Z" />
      <path d="M46.335938.894531c-2.261719 0-4.289063-.394531-6.078126-1.183593-1.792968-.789063-3.210937-1.941407-4.257812-3.453126-1.046875-1.515624-1.566406-3.363281-1.566406-5.539062s.519531-4 1.566406-5.472656c1.046875-1.472656 2.496094-2.578125 4.351562-3.324219 1.855469-.746094 3.980469-1.121094 6.367188-1.121094h8.707031v-1.792969c0-1.492187-.472656-2.71875-1.410156-3.679687s-2.429687-1.441406-4.480469-1.441406c-2.003906 0-3.496094.460937-4.480468 1.378906-.980469.917969-1.621094 2.101563-1.917969 3.550781l-7.425781-2.496094c.511719-1.621093 1.335938-3.105468 2.464844-4.449218 1.128906-1.34375 2.644531-2.429688 4.542968-3.261719 1.898438-.832031 4.214844-1.25 6.945313-1.25 4.179687 0 7.488281 1.046875 9.921875 3.136719 2.429688 2.089844 3.644531 5.121094 3.644531 9.089844v11.839843c0 1.277344.597657 1.917969 1.792969 1.917969h2.5625V0h-5.378906c-1.578125 0-2.878906-.382812-3.902344-1.152344-1.023437-.769531-1.535156-1.792968-1.535156-3.070312v-.066406h-1.21875c-.167969.511718-.554688 1.183593-1.152344 2.015624-.597656.832032-1.535156 1.570313-2.8125 2.210938-1.28125.640625-3.03125.957031-5.25.957031Zm1.40625-6.527343c2.261718 0 4.109374-.628907 5.539062-1.886719 1.429688-1.257813 2.144531-2.933594 2.144531-5.023438v-.640625h-8.128906c-1.492187 0-2.667969.320313-3.519531.960938-.855469.640625-1.28125 1.535156-1.28125 2.6875 0 1.152344.449218 2.089844 1.34375 2.816406.894531.722656 2.199218 1.085938 3.902344 1.085938Z" />
      <path d="M92.550781.894531c-2.859375 0-5.054687-.488281-6.589843-1.46875-1.535157-.984375-2.667969-2.070313-3.394532-3.265625h-1.152344V0H73.480469v-44.800781h8.0625v16.703125h1.152343c.46875-.765625 1.097657-1.492188 1.890626-2.175782.789062-.683593 1.832031-1.246093 3.132812-1.695312 1.300781-.449219 2.914062-.671875 4.832031-.671875 2.5625 0 4.929688.628906 7.105469 1.886719 2.175781 1.261718 3.925781 3.105468 5.246094 5.539062 1.324218 2.429688 1.984375 5.375 1.984375 8.832032v1.023437c0 3.457031-.660157 6.398437-1.984375 8.832031-1.320313 2.429688-3.070313 4.277344-5.246094 5.535156C97.480469.265625 95.113281.894531 92.550781.894531Zm-2.429687-7.039062c2.472656 0 4.542968-.800781 6.207031-2.398438 1.664063-1.601562 2.496094-3.9375 2.496094-7.007812v-.640625c0-3.074219-.820313-5.410156-2.464844-7.007813-1.640625-1.601562-3.722656-2.402343-6.238281-2.402343-2.476563 0-4.546875.800781-6.210938 2.402343-1.664062 1.597657-2.496094 3.933594-2.496094 7.007813v.640625c0 3.070312.832032 5.40625 2.496094 7.007812 1.664063 1.597657 3.734375 2.398438 6.210938 2.398438Z" />
    </g>
  </g>
</svg>
